<?xml version="1.0" encoding="UTF-8" standalone="no"?>

<svg
    xmlns="http://www.w3.org/2000/svg"
    xmlns:inkscape="http://www.inkscape.org/namespaces/inkscape"
    width="139.64789"
    height="24.348278"
    viewBox="0 0 139.64789 24.348278">

    <g id="Export" style="fill:none;fill-rule:evenodd;stroke:none;stroke-width:1" transform="translate(-0.3380863,-0.09736364)">
        <g id="Colored-Menu" transform="translate(-32,-26)" style="fill-rule:nonzero">
            <g id="logo_color" transform="translate(32,26)">
                <g id="Group">
                    <path
                        d="M 14.765909,16.615375 4.2272727,17.210826 c 0.1581819,1.499219 0.5768182,2.635129 1.2568182,3.404572 0.6790909,0.770344 1.7722727,1.11292 3.2777273,1.027276 0.7177273,-0.04057 1.4822728,-0.181204 2.2954548,-0.425064 0.812727,-0.242959 1.648636,-0.605818 2.508636,-1.091735 0.625455,0.466534 1.060909,1.163856 1.306818,2.090614 -1.840909,1.32703 -4.052727,2.06492 -6.6340906,2.209162 -1.3622728,0.07843 -2.5218182,-0.07392 -3.479091,-0.457068 C 3.8027273,23.584989 3.0086364,23.028754 2.38,22.299428 1.75,21.570553 1.2731818,20.684814 0.95,19.642663 0.625,18.600061 0.42954546,17.46911 0.35909091,16.248458 0.28954546,15.051246 0.39272727,13.924352 0.66818182,12.870481 0.94318182,11.81661 1.3695454,10.901121 1.9486364,10.125367 2.5268182,9.3509659 3.2645455,8.7226099 4.16,8.2452576 5.0554546,7.7683561 6.0772727,7.498803 7.2254545,7.4320909 c 1.1454546,-0.06536 2.1777273,0.053189 3.0936365,0.3497879 0.917727,0.2984015 1.703182,0.7401439 2.360455,1.3247765 0.656818,0.5859849 1.170909,1.3004357 1.543636,2.1433527 0.372273,0.842466 0.586818,1.766518 0.644545,2.765848 0.025,0.436784 0.03227,0.868159 0.02091,1.295027 -0.01,0.42867 -0.05273,0.86275 -0.122727,1.304492 z M 7.4786364,9.9428106 C 5.2068182,10.071277 4.0763636,11.676875 4.0863636,14.759606 l 7.2413634,-0.411091 -0.02454,-0.423261 C 11.231818,12.682966 10.880909,11.69175 10.251818,10.950705 9.6213636,10.211011 8.6968182,9.8742955 7.4786364,9.9428106 Z"
                        id="Shape"
                        inkscape:connector-curvature="0"
                        style="fill:#03d5f1" />
                    <path
                        d="m 40.978636,18.48647 0,-8.225424 c 0,-1.4131255 -0.201363,-2.4701521 -0.605,-3.1769399 C 40.965909,6.5657348 41.738182,6.307 42.688182,6.307 43.992273,6.307 44.645,7.0705833 44.645,8.595947 l 0,8.980894 c 0,1.221102 0.154545,2.090614 0.463182,2.605829 0.309091,0.516569 0.854545,0.773951 1.637727,0.773951 0.782727,0 1.577727,-0.193826 2.384545,-0.581026 0.806819,-0.38675 1.530455,-0.909629 2.171819,-1.568186 l 0,-12.2881022 c 0.664091,-0.093758 1.269545,-0.1415379 1.815454,-0.1415379 0.545909,0 1.175,0.048682 1.887273,0.1415379 l 0,12.4972542 c 0,1.646166 0.331364,2.765848 0.996364,3.353185 -0.261819,0.846523 -0.724546,1.45775 -1.388637,1.835034 -1.495454,-0.258735 -2.490909,-1.105708 -2.99,-2.541371 -1.850909,1.741727 -3.833181,2.61214 -5.945454,2.61214 -1.565455,0 -2.740909,-0.530992 -3.524091,-1.588019 C 41.37,21.627348 40.978636,20.228197 40.978636,18.48647 Z"
                        id="path15"
                        inkscape:connector-curvature="0"
                        style="fill:#009fc8" />
                    <path
                        d="M 57.426818,8.2132538 C 57.663636,7.3423901 58.113636,6.6951023 58.78,6.2722917 c 1.638182,0.3524924 2.716818,1.400053 3.24,3.142231 0.947727,-2.0942197 2.502727,-3.142231 4.662273,-3.142231 0.57,0 1.198636,0.070769 1.887273,0.2109545 0,1.366697 -0.297273,2.5192841 -0.89,3.4609167 -0.213637,-0.07167 -0.70091,-0.1298182 -1.459091,-0.176697 -1.615001,0 -2.884546,0.8947541 -3.809546,2.6815571 l 0,11.508742 c -0.451364,0.09421 -1.063182,0.140637 -1.832727,0.140637 -0.770909,0 -1.383182,-0.04688 -1.834091,-0.140637 l 0,-12.10825 C 58.743636,10.249776 58.305,9.0381402 57.426818,8.2132538 Z"
                        id="path17"
                        inkscape:connector-curvature="0"
                        style="fill:#009fc8" />
                    <path
                        d="m 74.430454,8.7879697 c 0,-0.8235341 -0.19909,-1.4293523 -0.492727,-1.7926629 C 73.642273,6.6306439 73.125,6.4498901 72.387273,6.4498901 l -0.840455,0 -0.546363,0 -0.248182,0.2114053 0,4.0861176 c 0.0082,0.100068 0.01,0.211856 0.01,0.328151 l 0,12.918713 c 0.452727,0.09601 1.062272,0.140636 1.832272,0.140636 0.746364,0 1.339546,-0.04237 1.784091,-0.132974 0.01909,-0.0023 0.035,-0.0077 0.05091,-0.0095 l 0,-14.4030563 c 0,-0.024341 -0.0018,-0.046428 -0.0018,-0.069867 l 0.0027,-0.7315795 z"
                        id="path19"
                        inkscape:connector-curvature="0"
                        style="fill:#009fc8" />
                    <path
                        d="M 37.659091,3.2607803 C 37.659091,2.4381477 37.46,1.831428 37.167273,1.4703712 36.87,1.1034545 36.353182,0.92315152 35.615909,0.92315152 l -0.841363,0 -0.54591,0 -0.250454,0.21140528 0,3.4726364 c 0.0095,0.099617 0.01273,0.2114053 0.01273,0.3281515 l 0,19.0584813 c 0.451364,0.09601 1.060909,0.140636 1.832273,0.140636 0.746363,0 1.339545,-0.04237 1.785909,-0.132973 0.01864,-0.0023 0.03364,-0.0077 0.04909,-0.0095 l 0,-20.5432768 c 0,-0.02389 -0.0027,-0.046428 -0.0027,-0.069867 l 0.0036,-0.1180985 z"
                        id="path21"
                        inkscape:connector-curvature="0"
                        style="fill:#009fc8" />
                    <path
                        d="m 89.465,17.392481 1.208182,2.930375 c 0.546818,1.435212 1.117727,2.354307 1.709545,2.753678 -0.664091,0.751864 -1.484091,1.129599 -2.455909,1.129599 -0.615909,0 -1.090909,-0.158667 -1.422727,-0.477353 -0.332273,-0.318685 -0.640455,-0.840663 -0.926818,-1.571341 L 86.155455,18.698326 C 85.775,17.779231 85.376364,17.162144 84.961818,16.844811 c -0.416363,-0.317784 -0.907727,-0.476902 -1.477727,-0.476902 -0.568637,0 -1.234546,0.02344 -1.995,0.06942 l 0,7.520439 c -0.45,0.09421 -1.044091,0.140637 -1.78,0.140637 -0.735455,0 -1.34,-0.04688 -1.814545,-0.140637 l 0,-23.28162864 0.213181,-0.21185606 1.425,0 c 0.734546,0 1.245455,0.17759849 1.529546,0.52964016 0.285454,0.35339394 0.426363,0.95335224 0.426363,1.80122724 l 0,10.6085793 1.211819,-0.07032 c 0.37909,0 0.662272,-0.164076 0.854091,-0.49403 l 3.131818,-4.8731404 c 0.591818,-1.0349394 1.35409,-1.5524091 2.277727,-1.5524091 0.926364,0 1.614091,0.01172 2.064545,0.03561 l 0.213637,0.2817235 -3.879546,6.107765 c -0.355,0.563447 -0.748181,1.022769 -1.174545,1.375712 1.472727,0.377284 2.563182,1.437015 3.276818,3.177841 z"
                        id="path23"
                        inkscape:connector-curvature="0"
                        style="fill:#009fc8" />
                    <path
                        d="m 105.80545,17.392481 1.20909,2.930375 c 0.5441,1.435212 1.115,2.354307 1.7091,2.753678 -0.665,0.751864 -1.48364,1.129599 -2.45546,1.129599 -0.61773,0 -1.09318,-0.158667 -1.425,-0.477353 -0.33136,-0.317784 -0.63954,-0.840663 -0.925,-1.571341 l -1.42409,-3.459113 c -0.38,-0.919095 -0.77773,-1.536182 -1.19182,-1.853515 -0.41545,-0.317784 -0.90818,-0.476902 -1.476815,-0.476902 -0.570909,0 -1.235,0.02344 -1.99591,0.06942 l 0,7.520439 c -0.449091,0.09421 -1.045454,0.140637 -1.779091,0.140637 -0.736818,0 -1.341363,-0.04688 -1.814545,-0.140637 l 0,-23.28162864 0.213182,-0.21185606 1.423636,0 c 0.735,0 1.245455,0.17759849 1.528637,0.52964016 0.285454,0.35339394 0.427272,0.95335224 0.427272,1.80122724 l 0,10.6085793 1.21,-0.07032 c 0.38,0 0.665,-0.164076 0.855,-0.49403 l 3.133634,-4.8731404 c 0.59182,-1.0349394 1.35273,-1.5524091 2.27773,-1.5524091 0.925,0 1.61318,0.01172 2.06364,0.03561 l 0.21363,0.2817235 -3.87954,6.107765 c -0.35409,0.563447 -0.74773,1.022769 -1.17455,1.375712 1.47318,0.377284 2.56455,1.437015 3.27727,3.177841 z"
                        id="path25"
                        inkscape:connector-curvature="0"
                        style="fill:#009fc8" />
                    <path
                        d="m 110.14,18.48647 0,-8.225424 c 0,-1.4131255 -0.20318,-2.4701521 -0.60727,-3.1769399 C 110.125,6.5657348 110.89727,6.307 111.84818,6.307 c 1.30409,0 1.95682,0.7635833 1.95682,2.288947 l 0,8.980894 c 0,1.221102 0.15409,2.090614 0.46273,2.605829 0.31,0.516569 0.85409,0.773951 1.63818,0.773951 0.78182,0 1.57682,-0.193826 2.38409,-0.581026 0.805,-0.38675 1.53136,-0.909629 2.17045,-1.568186 l 0,-12.2881022 c 0.66409,-0.093758 1.26864,-0.1415379 1.815,-0.1415379 0.54455,0 1.17546,0.048682 1.88819,0.1415379 l 0,12.4972542 c 0,1.646166 0.33136,2.765848 0.99454,3.353185 -0.26,0.846523 -0.72409,1.45775 -1.38773,1.835034 -1.4959,-0.258735 -2.49181,-1.105708 -2.98954,-2.541371 -1.85227,1.741727 -3.83455,2.61214 -5.94727,2.61214 -1.56546,0 -2.74,-0.530992 -3.52273,-1.588019 C 110.53,21.627348 110.14,20.228197 110.14,18.48647 Z"
                        id="path27"
                        inkscape:connector-curvature="0"
                        style="fill:#009fc8" />
                    <path
                        d="m 126.99636,23.021992 c 0,-0.401625 0.10319,-0.860496 0.30909,-1.380219 0.20682,-0.519273 0.45591,-0.928561 0.74637,-1.228315 1.94818,0.925406 3.51318,1.352724 4.69318,1.283758 1.20273,-0.07032 2.08182,-0.32094 2.63727,-0.752765 0.555,-0.432728 0.81318,-0.978595 0.77409,-1.6358 -0.0605,-1.034037 -0.85,-1.790859 -2.3709,-2.267761 L 131.76,16.414788 c -3.06364,-0.952451 -4.66045,-2.545879 -4.79273,-4.77758 -0.095,-1.621825 0.41637,-2.9308254 1.535,-3.9279012 1.11727,-0.994822 2.625,-1.5483523 4.51955,-1.6583371 1.91909,-0.1108864 3.85136,0.2014886 5.79636,0.9380265 0.0282,0.4705909 -0.0436,0.9695796 -0.215,1.4974167 -0.17091,0.5296401 -0.41545,0.9434356 -0.72909,1.2458939 -1.72864,-0.6783901 -3.32591,-0.9745379 -4.79455,-0.8897954 -0.78136,0.045076 -1.39363,0.269553 -1.83318,0.6702765 -0.43954,0.4029773 -0.64182,0.8861891 -0.61,1.4514391 0.0336,0.562997 0.23046,0.988512 0.59318,1.274743 0.36137,0.28578 0.94182,0.55939 1.74182,0.817674 l 2.17955,0.686053 c 3.07682,0.977693 4.68591,2.652708 4.82454,5.025947 0.0955,1.620924 -0.45909,2.937587 -1.65772,3.950439 -1.20046,1.013303 -2.87819,1.58261 -5.03364,1.706118 -2.15727,0.124409 -4.25227,-0.342576 -6.28773,-1.403209 z"
                        id="path29"
                        inkscape:connector-curvature="0"
                        style="fill:#009fc8" />
                    <path
                        d="m 72.590455,0.09736364 c 1.175454,0 2.127272,0.94478786 2.127272,2.11044696 0,1.1661099 -0.951818,2.1108977 -2.127272,2.1108977 -1.176819,0 -2.129546,-0.9447878 -2.129546,-2.1108977 0.0014,-1.1656591 0.952727,-2.11044696 2.129546,-2.11044696 z"
                        id="path31"
                        inkscape:connector-curvature="0"
                        style="fill:#009fc8" />
                    <path
                        d="m 23.525,21.063451 c -0.852727,0 -1.635455,0.03426 -2.348636,0.105026 l 0.03545,-1.799875 0,-3.019625 0,-2.297962 c 0.545455,0.0266 1.282273,0.03606 2.206364,0.03606 l 0.892272,0 5.182273,0 c 0.117727,-0.400273 0.178637,-0.911883 0.178637,-1.536633 0,-0.623848 -0.06046,-1.148079 -0.178637,-1.568185 l -6.074545,0 -0.161364,0.0018 -2.044545,0.0311 0,-4.4715153 c 0,0 -0.113182,-1.0795644 -0.186364,-1.3617386 -0.07454,-0.2817235 -0.291364,-0.9317159 -0.291364,-0.9317159 l 4.312728,0 6.188636,0 c 0.19,-0.4958333 0.286364,-1.0538712 0.286364,-1.677269 0,-0.6233977 -0.03591,-1.1237386 -0.107728,-1.4996704 l -13.939545,0 0,4.507e-4 -0.725455,0 9.09e-4,0.00135 c -0.221818,-0.00766 -0.45,0.0027 -0.682727,0.027496 -0.494091,0.6134811 -0.714091,1.3712046 -0.657727,2.2677614 0.872273,0.3993712 1.764545,0.9195454 2.065,2.160481 0.03545,1.097144 0,16.4147871 0,16.4147871 0,0.729777 0.195909,1.302239 0.586818,1.711527 0.390909,0.413795 0.920909,0.61889 1.585455,0.61889 l 9.952273,0 c 1.399545,0 2.207272,-0.590042 2.420454,-1.766068 0.07136,-0.328603 0.106364,-0.812716 0.106364,-1.446481 l -8.601364,0 0,0 z"
                        id="path33"
                        inkscape:connector-curvature="0"
                        style="fill:#009fc8" />
                </g>
            </g>
        </g>
    </g>
</svg>
